<svg width="16" height="16" viewBox="0 0 16 16" fill="none" xmlns="http://www.w3.org/2000/svg">
<path d="M4.66683 7.16683H3.3335C1.72016 7.16683 0.833496 6.28016 0.833496 4.66683V3.3335C0.833496 1.72016 1.72016 0.833496 3.3335 0.833496H4.66683C6.28016 0.833496 7.16683 1.72016 7.16683 3.3335V4.66683C7.16683 6.28016 6.28016 7.16683 4.66683 7.16683ZM3.3335 1.8335C2.28016 1.8335 1.8335 2.28016 1.8335 3.3335V4.66683C1.8335 5.72016 2.28016 6.16683 3.3335 6.16683H4.66683C5.72016 6.16683 6.16683 5.72016 6.16683 4.66683V3.3335C6.16683 2.28016 5.72016 1.8335 4.66683 1.8335H3.3335Z" fill="#2FA5DE"/>
<path d="M12.6668 7.16683H11.3335C9.72016 7.16683 8.8335 6.28016 8.8335 4.66683V3.3335C8.8335 1.72016 9.72016 0.833496 11.3335 0.833496H12.6668C14.2802 0.833496 15.1668 1.72016 15.1668 3.3335V4.66683C15.1668 6.28016 14.2802 7.16683 12.6668 7.16683ZM11.3335 1.8335C10.2802 1.8335 9.8335 2.28016 9.8335 3.3335V4.66683C9.8335 5.72016 10.2802 6.16683 11.3335 6.16683H12.6668C13.7202 6.16683 14.1668 5.72016 14.1668 4.66683V3.3335C14.1668 2.28016 13.7202 1.8335 12.6668 1.8335H11.3335Z" fill="#2FA5DE"/>
<path d="M12.6668 15.1668H11.3335C9.72016 15.1668 8.8335 14.2802 8.8335 12.6668V11.3335C8.8335 9.72016 9.72016 8.8335 11.3335 8.8335H12.6668C14.2802 8.8335 15.1668 9.72016 15.1668 11.3335V12.6668C15.1668 14.2802 14.2802 15.1668 12.6668 15.1668ZM11.3335 9.8335C10.2802 9.8335 9.8335 10.2802 9.8335 11.3335V12.6668C9.8335 13.7202 10.2802 14.1668 11.3335 14.1668H12.6668C13.7202 14.1668 14.1668 13.7202 14.1668 12.6668V11.3335C14.1668 10.2802 13.7202 9.8335 12.6668 9.8335H11.3335Z" fill="#2FA5DE"/>
<path d="M4.66683 15.1668H3.3335C1.72016 15.1668 0.833496 14.2802 0.833496 12.6668V11.3335C0.833496 9.72016 1.72016 8.8335 3.3335 8.8335H4.66683C6.28016 8.8335 7.16683 9.72016 7.16683 11.3335V12.6668C7.16683 14.2802 6.28016 15.1668 4.66683 15.1668ZM3.3335 9.8335C2.28016 9.8335 1.8335 10.2802 1.8335 11.3335V12.6668C1.8335 13.7202 2.28016 14.1668 3.3335 14.1668H4.66683C5.72016 14.1668 6.16683 13.7202 6.16683 12.6668V11.3335C6.16683 10.2802 5.72016 9.8335 4.66683 9.8335H3.3335Z" fill="#2FA5DE"/>
</svg>
