<svg width="18" height="18" viewBox="0 0 18 18" fill="none" xmlns="http://www.w3.org/2000/svg">
<path d="M15.8175 5.23514C15.18 4.53014 14.115 4.17764 12.57 4.17764H12.39V4.14764C12.39 2.88764 12.39 1.32764 9.57003 1.32764H8.43003C5.61003 1.32764 5.61003 2.89514 5.61003 4.14764V4.18514H5.43003C3.87753 4.18514 2.82003 4.53764 2.18253 5.24264C1.44003 6.06764 1.46253 7.17764 1.53753 7.93514L1.54503 7.98764L1.59748 8.53842C1.61175 8.68819 1.69247 8.82358 1.81854 8.9057C2.00031 9.02409 2.26538 9.19366 2.43003 9.28514C2.53503 9.35264 2.64753 9.41264 2.76003 9.47264C4.04253 10.1776 5.45253 10.6501 6.88503 10.8826C6.95253 11.5876 7.26003 12.4126 8.90253 12.4126C10.545 12.4126 10.8675 11.5951 10.92 10.8676C12.45 10.6201 13.9275 10.0876 15.2625 9.30764C15.3075 9.28514 15.3375 9.26264 15.375 9.24014C15.657 9.08076 15.949 8.88632 16.2182 8.69367C16.3316 8.61257 16.4038 8.48639 16.4192 8.34788L16.425 8.29514L16.4625 7.94264C16.47 7.89764 16.47 7.86014 16.4775 7.80764C16.5375 7.05014 16.5225 6.01514 15.8175 5.23514ZM9.81753 10.3726C9.81753 11.1676 9.81753 11.2876 8.89503 11.2876C7.97253 11.2876 7.97253 11.1451 7.97253 10.3801V9.43514H9.81753V10.3726ZM6.68253 4.17764V4.14764C6.68253 2.87264 6.68253 2.40014 8.43003 2.40014H9.57003C11.3175 2.40014 11.3175 2.88014 11.3175 4.14764V4.18514H6.68253V4.17764Z" fill="#2FA5DE"/>
<path d="M15.4531 10.3962C15.8074 10.2295 16.2142 10.5105 16.1788 10.9005L15.9299 13.6425C15.7724 15.1425 15.1574 16.6725 11.8574 16.6725H6.14238C2.84238 16.6725 2.22738 15.1425 2.06988 13.65L1.83417 11.0572C1.79913 10.6717 2.19687 10.3913 2.55017 10.5494C3.41217 10.9351 4.7855 11.5216 5.69043 11.7696C5.85424 11.8145 5.98783 11.9329 6.06388 12.0848C6.53151 13.0188 7.50698 13.515 8.90238 13.515C10.2841 13.515 11.2712 12.9996 11.7407 12.0625C11.8169 11.9105 11.9503 11.7922 12.1142 11.747C13.0776 11.4812 14.547 10.8225 15.4531 10.3962Z" fill="#2FA5DE"/>
</svg>
