<svg width="16" height="17" viewBox="0 0 16 17" fill="none" xmlns="http://www.w3.org/2000/svg">
<path d="M14.0607 5.15351C13.494 4.52684 12.554 4.21351 11.174 4.21351H11.014V4.18684C11.014 3.06684 11.014 1.68018 8.50734 1.68018H7.49401C4.98734 1.68018 4.98734 3.06684 4.98734 4.18684V4.21351H4.82734C3.44734 4.21351 2.50068 4.52684 1.94068 5.15351C1.28068 5.89351 1.30068 6.87351 1.36734 7.54684L1.37401 7.59351L1.41309 8.04948C1.42629 8.20343 1.50971 8.34292 1.63962 8.42657C1.80834 8.53521 1.9845 8.64601 2.15401 8.74018C2.24734 8.80018 2.34734 8.85351 2.44734 8.90684C3.20068 9.32018 4.00734 9.64684 4.83401 9.87351C4.85401 11.6002 6.26734 13.0002 8.00068 13.0002C9.74734 13.0002 11.1673 11.5802 11.1673 9.83351V9.80684C12.0073 9.55351 12.814 9.20018 13.5673 8.76018C13.6073 8.74018 13.634 8.72018 13.6673 8.70018C13.9091 8.56878 14.1592 8.40009 14.3914 8.23658C14.5079 8.15452 14.5828 8.02581 14.5982 7.8841L14.634 7.55351C14.6407 7.51351 14.6407 7.48018 14.6473 7.43351C14.7007 6.76684 14.6873 5.84684 14.0607 5.15351ZM5.94068 4.18684C5.94068 3.05351 5.94068 2.62684 7.49401 2.62684H8.50734C10.0607 2.62684 10.0607 3.05351 10.0607 4.18684V4.21351H5.94068V4.18684ZM8.00068 12.0002C6.90068 12.0002 5.98734 11.1735 5.85401 10.1068C5.84068 10.0202 5.83401 9.92684 5.83401 9.83351C5.83401 8.64018 6.80734 7.66684 8.00068 7.66684C9.19401 7.66684 10.1673 8.64018 10.1673 9.83351C10.1673 9.91351 10.1607 9.98684 10.154 10.0602V10.0668C10.034 11.1535 9.11401 12.0002 8.00068 12.0002Z" fill="#2FA5DE"/>
<path d="M7.62025 11.1867C7.49358 11.1867 7.36691 11.1401 7.26691 11.0401L6.60691 10.3867C6.41358 10.1934 6.41358 9.8734 6.60691 9.68007C6.80025 9.48674 7.12025 9.48674 7.31358 9.68007L7.63358 10.0001L8.70691 9.0134C8.90691 8.82674 9.22691 8.84007 9.41358 9.04007C9.60025 9.24007 9.58691 9.56007 9.38691 9.74673L7.96691 11.0601C7.86025 11.1401 7.74025 11.1867 7.62025 11.1867Z" fill="#2FA5DE"/>
<path d="M14.0284 9.65406C14.1942 9.56194 14.4093 9.69542 14.392 9.88432L14.155 12.4741C14.015 13.8074 13.4684 15.1674 10.535 15.1674H5.45503C2.52169 15.1674 1.97503 13.8074 1.84169 12.4807L1.61111 10.0118C1.59321 9.82017 1.79822 9.69065 1.96836 9.78073C2.48836 10.0674 3.02836 10.3207 3.58169 10.5207C3.78836 10.5941 3.93503 10.7674 3.99503 10.9807C4.49503 12.7141 6.10836 14.0007 8.00169 14.0007C9.92836 14.0007 11.555 12.6874 12.0284 10.8874C12.0817 10.6741 12.2284 10.5007 12.435 10.4207C12.995 10.2007 13.5284 9.94073 14.0284 9.65406Z" fill="#2FA5DE"/>
</svg>
