<svg width="16" height="17" viewBox="0 0 16 17" fill="none" xmlns="http://www.w3.org/2000/svg">
<path d="M8.66732 15.6668H3.33398C1.72065 15.6668 0.833984 14.7802 0.833984 13.1668V7.8335C0.833984 6.22016 1.72065 5.3335 3.33398 5.3335H6.66732C6.94065 5.3335 7.16732 5.56016 7.16732 5.8335V13.1668C7.16732 14.2202 7.61399 14.6668 8.66732 14.6668C8.94065 14.6668 9.16732 14.8935 9.16732 15.1668C9.16732 15.4402 8.94065 15.6668 8.66732 15.6668ZM3.33398 6.3335C2.28065 6.3335 1.83398 6.78016 1.83398 7.8335V13.1668C1.83398 14.2202 2.28065 14.6668 3.33398 14.6668H6.53398C6.29398 14.2735 6.16732 13.7735 6.16732 13.1668V6.3335H3.33398Z" fill="white" fill-opacity="0.8"/>
<path d="M6.66732 6.33317H3.33398C3.06065 6.33317 2.83398 6.1065 2.83398 5.83317V4.49984C2.83398 3.4865 3.65398 2.6665 4.66732 2.6665H6.74064C6.89397 2.6665 7.04066 2.73982 7.13399 2.85982C7.22733 2.98649 7.26064 3.14651 7.22064 3.29317C7.18064 3.43984 7.16732 3.6065 7.16732 3.83317V5.83317C7.16732 6.1065 6.94065 6.33317 6.66732 6.33317ZM3.83398 5.33317H6.16732V3.83317C6.16732 3.77317 6.16732 3.71984 6.16732 3.6665H4.66732C4.20732 3.6665 3.83398 4.03984 3.83398 4.49984V5.33317Z" fill="white" fill-opacity="0.8"/>
<path d="M9.33398 9.66683C9.06065 9.66683 8.83398 9.44016 8.83398 9.16683V5.8335C8.83398 5.56016 9.06065 5.3335 9.33398 5.3335C9.60732 5.3335 9.83398 5.56016 9.83398 5.8335V9.16683C9.83398 9.44016 9.60732 9.66683 9.33398 9.66683Z" fill="white" fill-opacity="0.8"/>
<path d="M12.0005 9.66683C11.7272 9.66683 11.5005 9.44016 11.5005 9.16683V5.8335C11.5005 5.56016 11.7272 5.3335 12.0005 5.3335C12.2738 5.3335 12.5005 5.56016 12.5005 5.8335V9.16683C12.5005 9.44016 12.2738 9.66683 12.0005 9.66683Z" fill="white" fill-opacity="0.8"/>
<path d="M12.0007 15.6668H9.33398C9.06065 15.6668 8.83398 15.4402 8.83398 15.1668V12.5002C8.83398 11.8602 9.36065 11.3335 10.0007 11.3335H11.334C11.974 11.3335 12.5007 11.8602 12.5007 12.5002V15.1668C12.5007 15.4402 12.274 15.6668 12.0007 15.6668ZM9.83398 14.6668H11.5007V12.5002C11.5007 12.4068 11.4273 12.3335 11.334 12.3335H10.0007C9.90732 12.3335 9.83398 12.4068 9.83398 12.5002V14.6668Z" fill="white" fill-opacity="0.8"/>
<path d="M4.00049 12.3332C3.72715 12.3332 3.50049 12.1065 3.50049 11.8332V9.1665C3.50049 8.89317 3.72715 8.6665 4.00049 8.6665C4.27382 8.6665 4.50049 8.89317 4.50049 9.1665V11.8332C4.50049 12.1065 4.27382 12.3332 4.00049 12.3332Z" fill="white" fill-opacity="0.8"/>
<path d="M12.667 15.6668H8.66699C7.05366 15.6668 6.16699 14.7802 6.16699 13.1668V3.8335C6.16699 2.22016 7.05366 1.3335 8.66699 1.3335H12.667C14.2803 1.3335 15.167 2.22016 15.167 3.8335V13.1668C15.167 14.7802 14.2803 15.6668 12.667 15.6668ZM8.66699 2.3335C7.61366 2.3335 7.16699 2.78016 7.16699 3.8335V13.1668C7.16699 14.2202 7.61366 14.6668 8.66699 14.6668H12.667C13.7203 14.6668 14.167 14.2202 14.167 13.1668V3.8335C14.167 2.78016 13.7203 2.3335 12.667 2.3335H8.66699Z" fill="white" fill-opacity="0.8"/>
</svg>
