<svg width="20" height="20" viewBox="0 0 20 20" fill="none" xmlns="http://www.w3.org/2000/svg">
<path d="M13.9587 2.9665V1.6665C13.9587 1.32484 13.6754 1.0415 13.3337 1.0415C12.992 1.0415 12.7087 1.32484 12.7087 1.6665V2.9165H7.29202V1.6665C7.29202 1.32484 7.00869 1.0415 6.66702 1.0415C6.32535 1.0415 6.04202 1.32484 6.04202 1.6665V2.9665C3.79202 3.17484 2.70035 4.5165 2.53369 6.50817C2.51702 6.74984 2.71702 6.94984 2.95035 6.94984H17.0504C17.292 6.94984 17.492 6.7415 17.467 6.50817C17.3004 4.5165 16.2087 3.17484 13.9587 2.9665Z" fill="#2FA5DE"/>
<path d="M16.6672 8.2002H3.33382C2.87549 8.2002 2.50049 8.5752 2.50049 9.03353V14.1669C2.50049 16.6669 3.75049 18.3335 6.66715 18.3335H13.3338C16.2505 18.3335 17.5005 16.6669 17.5005 14.1669V9.03353C17.5005 8.5752 17.1255 8.2002 16.6672 8.2002ZM7.67549 15.1752C7.59215 15.2502 7.50049 15.3085 7.40049 15.3502C7.30049 15.3919 7.19215 15.4169 7.08382 15.4169C6.97549 15.4169 6.86715 15.3919 6.76715 15.3502C6.66715 15.3085 6.57549 15.2502 6.49215 15.1752C6.34215 15.0169 6.25049 14.8002 6.25049 14.5835C6.25049 14.3669 6.34215 14.1502 6.49215 13.9919C6.57549 13.9169 6.66715 13.8585 6.76715 13.8169C6.96715 13.7335 7.20049 13.7335 7.40049 13.8169C7.50049 13.8585 7.59215 13.9169 7.67549 13.9919C7.82549 14.1502 7.91715 14.3669 7.91715 14.5835C7.91715 14.8002 7.82549 15.0169 7.67549 15.1752ZM7.85049 11.9835C7.80882 12.0835 7.75049 12.1752 7.67549 12.2585C7.59215 12.3335 7.50049 12.3919 7.40049 12.4335C7.30049 12.4752 7.19215 12.5002 7.08382 12.5002C6.97549 12.5002 6.86715 12.4752 6.76715 12.4335C6.66715 12.3919 6.57549 12.3335 6.49215 12.2585C6.41715 12.1752 6.35882 12.0835 6.31715 11.9835C6.27549 11.8835 6.25049 11.7752 6.25049 11.6669C6.25049 11.5585 6.27549 11.4502 6.31715 11.3502C6.35882 11.2502 6.41715 11.1585 6.49215 11.0752C6.57549 11.0002 6.66715 10.9419 6.76715 10.9002C6.96715 10.8169 7.20049 10.8169 7.40049 10.9002C7.50049 10.9419 7.59215 11.0002 7.67549 11.0752C7.75049 11.1585 7.80882 11.2502 7.85049 11.3502C7.89215 11.4502 7.91715 11.5585 7.91715 11.6669C7.91715 11.7752 7.89215 11.8835 7.85049 11.9835ZM10.5922 12.2585C10.5088 12.3335 10.4172 12.3919 10.3172 12.4335C10.2172 12.4752 10.1088 12.5002 10.0005 12.5002C9.89215 12.5002 9.78382 12.4752 9.68382 12.4335C9.58382 12.3919 9.49215 12.3335 9.40882 12.2585C9.25882 12.1002 9.16715 11.8835 9.16715 11.6669C9.16715 11.4502 9.25882 11.2335 9.40882 11.0752C9.49215 11.0002 9.58382 10.9419 9.68382 10.9002C9.88382 10.8085 10.1172 10.8085 10.3172 10.9002C10.4172 10.9419 10.5088 11.0002 10.5922 11.0752C10.7422 11.2335 10.8338 11.4502 10.8338 11.6669C10.8338 11.8835 10.7422 12.1002 10.5922 12.2585Z" fill="#2FA5DE"/>
</svg>
