<svg width="16" height="17" viewBox="0 0 16 17" fill="none" xmlns="http://www.w3.org/2000/svg">
<path d="M10.6672 1.8335H5.33382C3.00049 1.8335 2.00049 3.16683 2.00049 5.16683V11.8335C2.00049 13.8335 3.00049 15.1668 5.33382 15.1668H10.6672C13.0005 15.1668 14.0005 13.8335 14.0005 11.8335V5.16683C14.0005 3.16683 13.0005 1.8335 10.6672 1.8335ZM5.33382 8.66683H8.00049C8.27382 8.66683 8.50049 8.8935 8.50049 9.16683C8.50049 9.44016 8.27382 9.66683 8.00049 9.66683H5.33382C5.06049 9.66683 4.83382 9.44016 4.83382 9.16683C4.83382 8.8935 5.06049 8.66683 5.33382 8.66683ZM10.6672 12.3335H5.33382C5.06049 12.3335 4.83382 12.1068 4.83382 11.8335C4.83382 11.5602 5.06049 11.3335 5.33382 11.3335H10.6672C10.9405 11.3335 11.1672 11.5602 11.1672 11.8335C11.1672 12.1068 10.9405 12.3335 10.6672 12.3335ZM12.3338 6.66683H11.0005C9.98715 6.66683 9.16716 5.84683 9.16716 4.8335V3.50016C9.16716 3.22683 9.39382 3.00016 9.66716 3.00016C9.94049 3.00016 10.1672 3.22683 10.1672 3.50016V4.8335C10.1672 5.2935 10.5405 5.66683 11.0005 5.66683H12.3338C12.6072 5.66683 12.8338 5.8935 12.8338 6.16683C12.8338 6.44016 12.6072 6.66683 12.3338 6.66683Z" fill="#2FA5DE"/>
</svg>
