<svg width="20" height="20" viewBox="0 0 20 20" fill="none" xmlns="http://www.w3.org/2000/svg">
<path d="M18.334 6.0415H13.334C12.9923 6.0415 12.709 5.75817 12.709 5.4165C12.709 5.07484 12.9923 4.7915 13.334 4.7915H18.334C18.6757 4.7915 18.959 5.07484 18.959 5.4165C18.959 5.75817 18.6757 6.0415 18.334 6.0415Z" fill="#2FA5DE"/>
<path d="M5.00033 6.0415H1.66699C1.32533 6.0415 1.04199 5.75817 1.04199 5.4165C1.04199 5.07484 1.32533 4.7915 1.66699 4.7915H5.00033C5.34199 4.7915 5.62533 5.07484 5.62533 5.4165C5.62533 5.75817 5.34199 6.0415 5.00033 6.0415Z" fill="#2FA5DE"/>
<path d="M8.33366 8.95833C6.38366 8.95833 4.79199 7.36667 4.79199 5.41667C4.79199 3.46667 6.38366 1.875 8.33366 1.875C10.2837 1.875 11.8753 3.46667 11.8753 5.41667C11.8753 7.36667 10.2837 8.95833 8.33366 8.95833ZM8.33366 3.125C7.06699 3.125 6.04199 4.15 6.04199 5.41667C6.04199 6.68333 7.06699 7.70833 8.33366 7.70833C9.60033 7.70833 10.6253 6.68333 10.6253 5.41667C10.6253 4.15 9.60033 3.125 8.33366 3.125Z" fill="#2FA5DE"/>
<path d="M18.3338 15.2085H15.0005C14.6588 15.2085 14.3755 14.9252 14.3755 14.5835C14.3755 14.2418 14.6588 13.9585 15.0005 13.9585H18.3338C18.6755 13.9585 18.9588 14.2418 18.9588 14.5835C18.9588 14.9252 18.6755 15.2085 18.3338 15.2085Z" fill="#2FA5DE"/>
<path d="M6.66699 15.2085H1.66699C1.32533 15.2085 1.04199 14.9252 1.04199 14.5835C1.04199 14.2418 1.32533 13.9585 1.66699 13.9585H6.66699C7.00866 13.9585 7.29199 14.2418 7.29199 14.5835C7.29199 14.9252 7.00866 15.2085 6.66699 15.2085Z" fill="#2FA5DE"/>
<path d="M11.6672 18.1248C9.71715 18.1248 8.12549 16.5332 8.12549 14.5832C8.12549 12.6332 9.71715 11.0415 11.6672 11.0415C13.6172 11.0415 15.2088 12.6332 15.2088 14.5832C15.2088 16.5332 13.6172 18.1248 11.6672 18.1248ZM11.6672 12.2915C10.4005 12.2915 9.37549 13.3165 9.37549 14.5832C9.37549 15.8498 10.4005 16.8748 11.6672 16.8748C12.9338 16.8748 13.9588 15.8498 13.9588 14.5832C13.9588 13.3165 12.9338 12.2915 11.6672 12.2915Z" fill="#2FA5DE"/>
</svg>
