<svg width="18" height="18" viewBox="0 0 18 18" fill="none" xmlns="http://www.w3.org/2000/svg">
<path d="M16.1699 8.05506L15.1574 6.87006C14.9699 6.64506 14.8124 6.22506 14.8124 5.92506V4.65006C14.8124 3.85506 14.1599 3.20256 13.3649 3.20256H12.0899C11.7899 3.20256 11.3624 3.04506 11.1374 2.85756L9.95241 1.84506C9.43491 1.40256 8.58741 1.40256 8.06991 1.84506L6.86991 2.85756C6.64491 3.04506 6.22491 3.20256 5.92491 3.20256H4.62741C3.83241 3.20256 3.17991 3.85506 3.17991 4.65006V5.92506C3.17991 6.21756 3.02991 6.63756 2.84241 6.86256L1.82991 8.05506C1.39491 8.58006 1.39491 9.42006 1.82991 9.93006L2.84241 11.1226C3.02991 11.3401 3.17991 11.7676 3.17991 12.0601V13.3426C3.17991 14.1376 3.83241 14.7901 4.62741 14.7901H5.93241C6.22491 14.7901 6.65241 14.9476 6.87741 15.1351L8.06241 16.1476C8.57991 16.5901 9.42741 16.5901 9.94491 16.1476L11.1299 15.1351C11.3549 14.9476 11.7749 14.7901 12.0749 14.7901H13.3499C14.1449 14.7901 14.7974 14.1376 14.7974 13.3426V12.0676C14.7974 11.7676 14.9549 11.3476 15.1424 11.1226L16.1549 9.93756C16.6124 9.42756 16.6124 8.58006 16.1699 8.05506ZM8.43741 6.09756C8.43741 5.79006 8.69241 5.53506 8.99991 5.53506C9.30741 5.53506 9.56241 5.79006 9.56241 6.09756V9.72006C9.56241 10.0276 9.30741 10.2826 8.99991 10.2826C8.69241 10.2826 8.43741 10.0276 8.43741 9.72006V6.09756ZM8.99991 12.6526C8.58741 12.6526 8.24991 12.3151 8.24991 11.9026C8.24991 11.4901 8.57991 11.1526 8.99991 11.1526C9.41241 11.1526 9.74991 11.4901 9.74991 11.9026C9.74991 12.3151 9.41991 12.6526 8.99991 12.6526Z" fill="#2FA5DE"/>
</svg>
