<svg width="20" height="21" viewBox="0 0 20 21" fill="none" xmlns="http://www.w3.org/2000/svg">
<path d="M16.8253 11.9668L15.8837 10.4002C15.6753 10.0585 15.492 9.40016 15.492 9.00016V7.44183C15.492 4.41683 13.0337 1.9585 10.017 1.9585C6.992 1.96683 4.53367 4.41683 4.53367 7.44183V8.99183C4.53367 9.39183 4.35033 10.0502 4.15033 10.3918L3.20867 11.9585C2.85033 12.5668 2.767 13.2585 2.992 13.8585C3.217 14.4668 3.72533 14.9502 4.392 15.1668C5.292 15.4668 6.20033 15.6835 7.12533 15.8418C7.217 15.8585 7.30866 15.8668 7.40033 15.8835C7.517 15.9002 7.642 15.9168 7.767 15.9335C7.98366 15.9668 8.20033 15.9918 8.42533 16.0085C8.95033 16.0585 9.48367 16.0835 10.017 16.0835C10.542 16.0835 11.067 16.0585 11.5837 16.0085C11.7753 15.9918 11.967 15.9752 12.1503 15.9502C12.3003 15.9335 12.4503 15.9168 12.6003 15.8918C12.692 15.8835 12.7837 15.8668 12.8753 15.8502C13.8087 15.7002 14.7337 15.4668 15.6337 15.1668C16.2753 14.9502 16.767 14.4668 17.0003 13.8502C17.2337 13.2252 17.167 12.5418 16.8253 11.9668ZM10.6253 8.5835C10.6253 8.9335 10.342 9.21683 9.992 9.21683C9.642 9.21683 9.35866 8.9335 9.35866 8.5835V6.00016C9.35866 5.65016 9.642 5.36683 9.992 5.36683C10.342 5.36683 10.6253 5.65016 10.6253 6.00016V8.5835Z" fill="white"/>
<path d="M12.3587 16.9248C12.0087 17.8915 11.0837 18.5832 10.0004 18.5832C9.34206 18.5832 8.69206 18.3165 8.23372 17.8415C7.96706 17.5915 7.76706 17.2582 7.65039 16.9165C7.75872 16.9332 7.86706 16.9415 7.98372 16.9582C8.17539 16.9832 8.37539 17.0082 8.57539 17.0248C9.05039 17.0665 9.53372 17.0915 10.0171 17.0915C10.4921 17.0915 10.9671 17.0665 11.4337 17.0248C11.6087 17.0082 11.7837 16.9998 11.9504 16.9748C12.0837 16.9582 12.2171 16.9415 12.3587 16.9248Z" fill="white"/>
</svg>
