<svg width="16" height="17" viewBox="0 0 16 17" fill="none" xmlns="http://www.w3.org/2000/svg">
<path d="M8.00043 15.6667C7.55376 15.6667 7.10043 15.5534 6.70043 15.3201L2.74043 13.0334C1.94043 12.5667 1.44043 11.7067 1.44043 10.7801V6.22008C1.44043 5.29341 1.94043 4.43341 2.74043 3.96674L6.70043 1.68008C7.50043 1.21341 8.49376 1.21341 9.30043 1.68008L13.2604 3.96674C14.0604 4.43341 14.5604 5.29341 14.5604 6.22008V10.7801C14.5604 11.7067 14.0604 12.5667 13.2604 13.0334L9.30043 15.3201C8.90043 15.5534 8.4471 15.6667 8.00043 15.6667ZM8.00043 2.3334C7.7271 2.3334 7.4471 2.40674 7.20043 2.54674L3.24043 4.8334C2.7471 5.12006 2.44043 5.64674 2.44043 6.22008V10.7801C2.44043 11.3467 2.7471 11.8801 3.24043 12.1667L7.20043 14.4534C7.69376 14.7401 8.3071 14.7401 8.80043 14.4534L12.7604 12.1667C13.2538 11.8801 13.5604 11.3534 13.5604 10.7801V6.22008C13.5604 5.65341 13.2538 5.12006 12.7604 4.8334L8.80043 2.54674C8.55376 2.40674 8.27376 2.3334 8.00043 2.3334Z" fill="white" fill-opacity="0.8"/>
<path d="M8.0006 8.33321C6.86727 8.33321 5.94727 7.4132 5.94727 6.27987C5.94727 5.14653 6.86727 4.22656 8.0006 4.22656C9.13393 4.22656 10.0539 5.14653 10.0539 6.27987C10.0539 7.4132 9.13393 8.33321 8.0006 8.33321ZM8.0006 5.22656C7.4206 5.22656 6.94727 5.69987 6.94727 6.27987C6.94727 6.85987 7.4206 7.33321 8.0006 7.33321C8.5806 7.33321 9.05393 6.85987 9.05393 6.27987C9.05393 5.69987 8.5806 5.22656 8.0006 5.22656Z" fill="white" fill-opacity="0.8"/>
<path d="M10.6673 12.1069C10.394 12.1069 10.1673 11.8802 10.1673 11.6069C10.1673 10.6869 9.19398 9.93359 8.00065 9.93359C6.80732 9.93359 5.83398 10.6869 5.83398 11.6069C5.83398 11.8802 5.60732 12.1069 5.33398 12.1069C5.06065 12.1069 4.83398 11.8802 4.83398 11.6069C4.83398 10.1336 6.25398 8.93359 8.00065 8.93359C9.74732 8.93359 11.1673 10.1336 11.1673 11.6069C11.1673 11.8802 10.9407 12.1069 10.6673 12.1069Z" fill="white" fill-opacity="0.8"/>
</svg>
