<svg width="18" height="18" viewBox="0 0 18 18" fill="none" xmlns="http://www.w3.org/2000/svg">
<path d="M6.1875 4.3125C5.88 4.3125 5.625 4.0575 5.625 3.75V1.5C5.625 1.1925 5.88 0.9375 6.1875 0.9375C6.495 0.9375 6.75 1.1925 6.75 1.5V3.75C6.75 4.0575 6.495 4.3125 6.1875 4.3125Z" fill="#2FA5DE"/>
<path d="M11.8125 4.3125C11.505 4.3125 11.25 4.0575 11.25 3.75V1.5C11.25 1.1925 11.505 0.9375 11.8125 0.9375C12.12 0.9375 12.375 1.1925 12.375 1.5V3.75C12.375 4.0575 12.12 4.3125 11.8125 4.3125Z" fill="#2FA5DE"/>
<path d="M8.99995 10.5675C9.38995 10.5675 9.67495 10.335 9.67495 9.9675C9.67495 9.5925 9.38995 9.375 8.99995 9.375C8.60995 9.375 8.32495 9.5925 8.32495 9.9675C8.32495 10.335 8.60995 10.5675 8.99995 10.5675Z" fill="#2FA5DE"/>
<path d="M9.00002 12.75C9.47222 12.75 9.85502 12.4377 9.85502 12.0525C9.85502 11.6673 9.47222 11.355 9.00002 11.355C8.52782 11.355 8.14502 11.6673 8.14502 12.0525C8.14502 12.4377 8.52782 12.75 9.00002 12.75Z" fill="#2FA5DE"/>
<path d="M14.6775 3.375C14.1825 3.0075 13.47 3.36 13.47 3.9825V4.0575C13.47 4.935 12.84 5.745 11.9625 5.835C10.95 5.94 10.095 5.145 10.095 4.155V3.375C10.095 2.9625 9.7575 2.625 9.345 2.625H8.655C8.2425 2.625 7.905 2.9625 7.905 3.375V4.155C7.905 4.7475 7.5975 5.2725 7.1325 5.565C7.065 5.61 6.99 5.6475 6.915 5.685C6.8475 5.7225 6.7725 5.7525 6.69 5.775C6.6 5.805 6.5025 5.8275 6.3975 5.835C6.2775 5.85 6.1575 5.85 6.0375 5.835C5.9325 5.8275 5.835 5.805 5.745 5.775C5.67 5.7525 5.595 5.7225 5.52 5.685C5.445 5.6475 5.37 5.61 5.3025 5.565C4.83 5.235 4.53 4.665 4.53 4.0575V3.9825C4.53 3.405 3.915 3.06 3.4275 3.3075C3.42 3.315 3.4125 3.315 3.405 3.3225C3.375 3.3375 3.3525 3.3525 3.3225 3.375C3.3 3.3975 3.27 3.4125 3.2475 3.435C3.0375 3.6 2.85 3.7875 2.6925 3.99C2.61 4.08 2.5425 4.1775 2.4825 4.275C2.475 4.2825 2.4675 4.29 2.46 4.305C2.3925 4.4025 2.3325 4.515 2.28 4.62C2.265 4.635 2.2575 4.6425 2.2575 4.6575C2.2125 4.7475 2.1675 4.8375 2.1375 4.935C2.115 4.9725 2.1075 5.0025 2.0925 5.04C2.0475 5.1525 2.0175 5.265 1.9875 5.3775C1.9575 5.4825 1.935 5.595 1.92 5.7075C1.905 5.79 1.8975 5.8725 1.89 5.9625C1.8825 6.0675 1.875 6.1725 1.875 6.2775V12.8475C1.875 14.865 3.51 16.5 5.5275 16.5H12.4725C14.49 16.5 16.125 14.865 16.125 12.8475V6.2775C16.125 5.085 15.555 4.0425 14.6775 3.375ZM9 13.6875C7.8375 13.6875 7.125 13.11 7.125 12.18C7.125 11.67 7.3875 11.2275 7.845 10.965C7.515 10.7325 7.2975 10.3875 7.2975 9.915C7.2975 8.94 8.0775 8.4375 9 8.4375C9.9225 8.4375 10.695 8.94 10.695 9.915C10.695 10.3875 10.485 10.7325 10.1475 10.965C10.6125 11.2275 10.875 11.67 10.875 12.18C10.875 13.11 10.155 13.6875 9 13.6875Z" fill="#2FA5DE"/>
</svg>
