<svg width="20" height="20" viewBox="0 0 20 20" fill="none" xmlns="http://www.w3.org/2000/svg">
<path d="M5.97487 18.9582C3.99154 18.9582 2.36658 17.5165 2.36658 15.7415V14.0415C2.36658 13.6998 2.64991 13.4165 2.99158 13.4165C3.33324 13.4165 3.61658 13.6998 3.61658 14.0415C3.61658 15.0832 4.62487 15.8665 5.97487 15.8665C7.32487 15.8665 8.33322 15.0832 8.33322 14.0415C8.33322 13.6998 8.61655 13.4165 8.95822 13.4165C9.29989 13.4165 9.58322 13.6998 9.58322 14.0415V15.7415C9.58322 17.5165 7.96654 18.9582 5.97487 18.9582ZM3.8332 16.5582C4.19987 17.2415 5.02487 17.7082 5.97487 17.7082C6.92487 17.7082 7.74988 17.2332 8.11655 16.5582C7.52488 16.9165 6.79154 17.1248 5.97487 17.1248C5.15821 17.1248 4.42487 16.9165 3.8332 16.5582Z" fill="#2FA5DE"/>
<path d="M5.97487 14.8334C4.60821 14.8334 3.38324 14.2084 2.7749 13.2167C2.50824 12.7834 2.36658 12.275 2.36658 11.7584C2.36658 10.8834 2.7499 10.0667 3.4499 9.45835C4.7999 8.27501 7.12488 8.27506 8.48322 9.45006C9.18322 10.0667 9.57488 10.8834 9.57488 11.7584C9.57488 12.275 9.43322 12.7834 9.16656 13.2167C8.56656 14.2084 7.34154 14.8334 5.97487 14.8334ZM5.97487 9.7917C5.32487 9.7917 4.72489 10.0084 4.27489 10.4C3.84989 10.7667 3.61658 11.25 3.61658 11.7584C3.61658 12.05 3.69154 12.3167 3.84154 12.5667C4.22488 13.2 5.04154 13.5917 5.97487 13.5917C6.90821 13.5917 7.72486 13.2001 8.09986 12.5751C8.24986 12.3334 8.32488 12.0584 8.32488 11.7667C8.32488 11.2584 8.09157 10.775 7.66657 10.4C7.2249 10.0084 6.62487 9.7917 5.97487 9.7917Z" fill="#2FA5DE"/>
<path d="M5.97487 17.1248C3.91654 17.1248 2.36658 15.7998 2.36658 14.0498V11.7582C2.36658 9.98316 3.98321 8.5415 5.97487 8.5415C6.91654 8.5415 7.81656 8.86653 8.49156 9.44986C9.19156 10.0665 9.58322 10.8832 9.58322 11.7582V14.0498C9.58322 15.7998 8.03321 17.1248 5.97487 17.1248ZM5.97487 9.7915C4.67487 9.7915 3.61658 10.6748 3.61658 11.7582V14.0498C3.61658 15.0915 4.62487 15.8748 5.97487 15.8748C7.32487 15.8748 8.33322 15.0915 8.33322 14.0498V11.7582C8.33322 11.2498 8.09991 10.7665 7.67491 10.3915C7.22491 10.0081 6.62487 9.7915 5.97487 9.7915Z" fill="#2FA5DE"/>
<path d="M15.8666 12.3331C14.6083 12.3331 13.5416 11.3998 13.4416 10.1998C13.375 9.50815 13.625 8.83317 14.125 8.3415C14.5416 7.90817 15.1333 7.6665 15.7583 7.6665H17.5C18.325 7.6915 18.9583 8.34147 18.9583 9.14147V10.8582C18.9583 11.6582 18.325 12.3081 17.525 12.3331H15.8666ZM17.4749 8.9165H15.7666C15.475 8.9165 15.2083 9.02483 15.0166 9.22483C14.775 9.45817 14.6583 9.77481 14.6916 10.0915C14.7333 10.6415 15.2666 11.0831 15.8666 11.0831H17.5C17.6083 11.0831 17.7083 10.9832 17.7083 10.8582V9.14147C17.7083 9.01647 17.6083 8.92484 17.4749 8.9165Z" fill="#2FA5DE"/>
<path d="M13.3336 17.7082H11.2502C10.9086 17.7082 10.6252 17.4248 10.6252 17.0832C10.6252 16.7415 10.9086 16.4582 11.2502 16.4582H13.3336C15.4836 16.4582 16.8752 15.0665 16.8752 12.9165V12.3332H15.8669C14.6086 12.3332 13.5419 11.3998 13.4419 10.1998C13.3752 9.50816 13.6253 8.83318 14.1253 8.34151C14.5419 7.90818 15.1336 7.66651 15.7586 7.66651H16.8669V7.08317C16.8669 5.13317 15.7253 3.79149 13.8753 3.57482C13.6753 3.54149 13.5002 3.5415 13.3252 3.5415H5.82524C5.62524 3.5415 5.43356 3.55816 5.24189 3.58316C3.40856 3.81649 2.28357 5.14984 2.28357 7.08317V8.74984C2.28357 9.0915 2.00024 9.37484 1.65857 9.37484C1.3169 9.37484 1.03357 9.0915 1.03357 8.74984V7.08317C1.03357 4.5165 2.61693 2.65818 5.07527 2.34984C5.30027 2.31651 5.55857 2.2915 5.82524 2.2915H13.3252C13.5252 2.2915 13.7836 2.29984 14.0502 2.3415C16.5086 2.62484 18.1169 4.4915 18.1169 7.08317V8.29151C18.1169 8.63318 17.8336 8.91651 17.4919 8.91651H15.7586C15.4669 8.91651 15.2003 9.02484 15.0086 9.22484C14.7669 9.45818 14.6502 9.77483 14.6836 10.0915C14.7252 10.6415 15.2586 11.0832 15.8586 11.0832H17.5002C17.8419 11.0832 18.1252 11.3665 18.1252 11.7082V12.9165C18.1252 15.7832 16.2002 17.7082 13.3336 17.7082Z" fill="#2FA5DE"/>
</svg>
