<svg width="18" height="18" viewBox="0 0 18 18" fill="none" xmlns="http://www.w3.org/2000/svg">
<path d="M3.75 11.25C2.0925 11.25 0.75 12.5925 0.75 14.25C0.75 14.8125 0.9075 15.345 1.185 15.795C1.7025 16.665 2.655 17.25 3.75 17.25C4.845 17.25 5.7975 16.665 6.315 15.795C6.5925 15.345 6.75 14.8125 6.75 14.25C6.75 12.5925 5.4075 11.25 3.75 11.25ZM5.2275 14.0025L3.63 15.48C3.525 15.5775 3.3825 15.63 3.2475 15.63C3.105 15.63 2.9625 15.5775 2.85 15.465L2.1075 14.7225C1.89 14.505 1.89 14.145 2.1075 13.9275C2.325 13.71 2.685 13.71 2.9025 13.9275L3.2625 14.2875L4.4625 13.1775C4.6875 12.9675 5.0475 12.9825 5.2575 13.2075C5.4675 13.4325 5.4525 13.7925 5.2275 14.0025Z" fill="#2FA5DE"/>
<path d="M16.125 9.375H14.25C13.425 9.375 12.75 10.05 12.75 10.875C12.75 11.7 13.425 12.375 14.25 12.375H16.125C16.335 12.375 16.5 12.21 16.5 12V9.75C16.5 9.54 16.335 9.375 16.125 9.375Z" fill="#2FA5DE"/>
<path d="M12.3974 4.05012C12.6224 4.26762 12.4349 4.60512 12.1199 4.60512L5.90991 4.59762C5.54991 4.59762 5.36991 4.16262 5.62491 3.90762L6.93741 2.58762C8.04741 1.48512 9.83991 1.48512 10.9499 2.58762L12.3674 4.02012C12.3749 4.02762 12.3899 4.04262 12.3974 4.05012Z" fill="#2FA5DE"/>
<path d="M16.4025 13.995C15.945 15.54 14.625 16.5 12.825 16.5H7.95002C7.65752 16.5 7.47002 16.1775 7.59002 15.9075C7.81502 15.3825 7.95752 14.79 7.95752 14.25C7.95752 11.9775 6.10502 10.125 3.83252 10.125C3.26252 10.125 2.70752 10.245 2.19752 10.47C1.92002 10.59 1.58252 10.4025 1.58252 10.1025V9C1.58252 6.96 2.81252 5.535 4.72502 5.295C4.91252 5.265 5.11502 5.25 5.32502 5.25H12.825C13.02 5.25 13.2075 5.2575 13.3875 5.2875C14.9025 5.46 15.9975 6.3825 16.4025 7.755C16.4775 8.0025 16.2975 8.25 16.0425 8.25H14.325C12.6975 8.25 11.4075 9.735 11.76 11.4225C12.0075 12.6525 13.1475 13.5 14.4 13.5H16.0425C16.305 13.5 16.4775 13.755 16.4025 13.995Z" fill="#2FA5DE"/>
</svg>
